<?xml version="1.0" encoding="UTF-8"?>
<!DOCTYPE svg PUBLIC "-//W3C//DTD SVG 1.1//EN" "http://www.w3.org/Graphics/SVG/1.1/DTD/svg11.dtd">
<!-- Creator: CorelDRAW 2021 (64-Bit) -->
<svg xmlns="http://www.w3.org/2000/svg" xml:space="preserve" width="4.32193in" height="1.04682in" version="1.1" style="shape-rendering:geometricPrecision; text-rendering:geometricPrecision; image-rendering:optimizeQuality; fill-rule:evenodd; clip-rule:evenodd"
     viewBox="0 0 231.58 56.09"
     xmlns:xlink="http://www.w3.org/1999/xlink"
     xmlns:xodm="http://www.corel.com/coreldraw/odm/2003">
 <defs>
  <style type="text/css">
   <![CDATA[
    .fil0 {fill:black;fill-rule:nonzero}
   ]]>
  </style>
 </defs>
    <g id="Layer_x0020_1">
  <metadata id="CorelCorpID_0Corel-Layer"/>
        <g id="_2924901737632">
   <path fill="#fff" d="M91.06 30.5l-9.72 -12.32 -3.03 0 0 19.88 3.74 0 0 -13.4 10.43 13.4 0 0 2.32 0 0 -19.88 -3.74 0 0 12.32zm21.97 3.87l-11.14 0 0 -4.48 10.75 0 0 -3.49 -10.75 0 0 -4.59 11.14 0 0 -3.63 -14.86 0c0,6.63 0,13.27 0,19.88l14.86 0 0 -3.69zm18.66 3.69l4.08 0 -8.9 -19.88 -4.08 0 -8.9 19.88 4.05 0 1.7 -3.74 10.38 0 1.67 3.74zm-3.18 -7.23l-7.37 0 3.69 -8.47 3.69 8.47zm26.54 6.97l-6.01 -6.78c3.77,-0.77 5.02,-3.52 5.02,-6.25 0,-3.44 -2.47,-6.56 -7.14,-6.59 -3.15,0.03 -6.29,0 -9.44,0l0 19.88 3.74 0 0 -6.63 3.6 0 5.78 6.63 4.45 0 0 -0.26zm-8.14 -16.13c2.35,0 3.4,1.59 3.4,3.19 0,1.6 -1.02,3.19 -3.4,3.19l-5.7 0 0 -6.38 5.7 0zm13.41 0.09l5.61 0c4.76,0 4.79,7.03 0,7.03l-5.61 0 0 -7.03zm5.61 -3.57c-3.12,-0.03 -6.24,0 -9.36,0l0 19.88 3.74 0 0 -5.84 5.61 0c9.72,0 9.7,-14.03 0,-14.03zm25.57 19.88l4.08 0 -8.9 -19.88 -4.08 0 -8.9 19.88 4.05 0 1.7 -3.74 10.38 0 1.67 3.74zm-3.18 -7.23l-7.37 0 3.69 -8.47 3.69 8.47zm23.87 -9.36c-1.5,-3.06 -4.71,-3.94 -7.8,-3.94 -3.66,0.03 -7.68,1.7 -7.68,5.78 0,4.45 3.74,5.53 7.8,6.01 2.64,0.28 4.59,1.05 4.59,2.92 0,2.15 -2.21,2.98 -4.56,2.98 -2.41,0 -4.71,-0.96 -5.59,-3.15l-3.12 1.62c1.47,3.63 4.59,4.88 8.65,4.88 4.42,0 8.34,-1.9 8.34,-6.32 0,-4.73 -3.86,-5.81 -8,-6.32 -2.38,-0.28 -4.42,-0.77 -4.42,-2.5 0,-1.47 1.33,-2.64 4.11,-2.64 2.15,0 4.03,1.08 4.71,2.21l2.98 -1.53zm18.74 0c-1.5,-3.06 -4.71,-3.94 -7.8,-3.94 -3.66,0.03 -7.68,1.7 -7.68,5.78 0,4.45 3.74,5.53 7.8,6.01 2.64,0.28 4.59,1.05 4.59,2.92 0,2.15 -2.21,2.98 -4.56,2.98 -2.41,0 -4.71,-0.96 -5.59,-3.15l-3.12 1.62c1.47,3.63 4.59,4.88 8.65,4.88 4.42,0 8.34,-1.9 8.34,-6.32 0,-4.73 -3.86,-5.81 -8,-6.32 -2.38,-0.28 -4.42,-0.77 -4.42,-2.5 0,-1.47 1.33,-2.64 4.11,-2.64 2.15,0 4.03,1.08 4.71,2.21l2.98 -1.53z"/>
            <g>
    <path fill="#fff" d="M21.13 0l11.02 0 0 7.05 -11.02 3.39 0 -10.44zm11.02 24.52l0 3.47 25.7 7.31 0 -35.29 11.02 0 0 51.41 -47.74 -14.69 0 -9.07 11.02 -3.13z"/>
                <path fill="#fff" d="M-0 56.09l11.02 0 0 -27.99 25.7 -7.31 0 6.07 0.63 0.18 10.39 2.95 0 -25.32 -47.74 14.69 0 36.72zm36.72 -12.14l0 12.14 11.02 0 0 -8.75 -11.02 -3.39z"/>
   </g>
  </g>
 </g>
</svg>
